<?xml version="1.0" standalone="no"?>
<!DOCTYPE svg PUBLIC "-//W3C//DTD SVG 20010904//EN"
 "http://www.w3.org/TR/2001/REC-SVG-20010904/DTD/svg10.dtd">
<svg version="1.0" xmlns="http://www.w3.org/2000/svg"
 width="192.000000pt" height="192.000000pt" viewBox="0 0 192.000000 192.000000"
 preserveAspectRatio="xMidYMid meet">
<metadata>
Created by potrace 1.14, written by Peter Selinger 2001-2017
</metadata>
<g transform="translate(0.000000,192.000000) scale(0.100000,-0.100000)"
fill="#000000" stroke="none">
<path d="M959 1893 c-1 -5 -1 -11 0 -15 0 -5 -3 -8 -9 -8 -5 0 -10 -6 -10 -14
0 -23 -33 -23 -52 -1 -17 20 -17 20 -13 -4 6 -35 -3 -43 -30 -25 -33 21 -41 2
-19 -44 20 -42 26 -64 14 -57 -4 3 -13 -2 -20 -10 -18 -21 -37 -19 -43 6 -3
12 -10 18 -16 14 -6 -3 -11 -1 -11 4 0 6 -4 11 -10 11 -5 0 -10 -6 -10 -14 0
-8 -4 -17 -8 -20 -5 -3 -9 3 -9 12 0 19 22 44 31 35 3 -4 6 -1 6 6 0 10 7 9
25 -3 30 -19 56 -11 29 9 -26 18 -84 12 -98 -11 -15 -26 -25 -85 -13 -77 5 3
1 -6 -8 -20 -9 -15 -25 -29 -36 -32 -30 -10 -153 -136 -179 -185 -14 -25 -31
-53 -39 -62 -8 -10 -11 -18 -8 -18 3 0 -1 -16 -9 -35 -7 -19 -17 -51 -20 -72
-3 -21 -8 -41 -10 -45 -6 -9 -6 -109 0 -134 2 -12 7 -37 10 -57 7 -47 45 -148
62 -168 8 -8 14 -21 14 -27 0 -6 6 -17 14 -24 11 -12 11 -18 -5 -37 -11 -13
-19 -19 -19 -15 0 5 -4 3 -9 -5 -5 -8 -19 -16 -31 -18 -12 -2 -30 -8 -41 -13
-20 -11 -26 -30 -9 -30 6 0 10 5 10 11 0 5 4 8 9 4 5 -3 16 1 23 8 16 16 31 5
40 -31 6 -23 5 -23 -35 -17 -23 4 -48 12 -56 19 -11 8 -15 8 -19 -2 -2 -7 -14
-23 -27 -35 -12 -12 -30 -35 -38 -52 -9 -16 -16 -25 -17 -19 0 6 -12 17 -27
23 -86 34 -160 -39 -111 -111 18 -26 25 -28 66 -14 24 8 31 53 11 73 -13 13
-51 5 -42 -10 3 -6 1 -7 -5 -3 -7 4 -12 0 -12 -10 0 -10 -3 -14 -7 -10 -10 10
-12 36 -3 36 5 0 11 8 15 19 4 13 14 17 33 16 44 -4 72 -16 72 -31 0 -8 4 -14
8 -14 5 0 15 -12 22 -26 8 -14 32 -35 53 -46 22 -11 36 -15 32 -9 -3 6 -1 11
4 11 6 0 11 -4 11 -8 0 -5 17 -7 38 -6 20 1 37 3 37 4 0 1 15 3 33 6 19 2 62
15 96 29 60 24 146 32 146 13 0 -13 98 -9 135 6 40 17 41 15 19 -19 -14 -22
-14 -25 5 -44 22 -22 41 -27 41 -13 0 5 12 8 28 6 15 -1 27 -3 27 -4 0 -10 37
-4 54 10 27 20 22 55 -9 63 -24 6 -34 -19 -12 -32 11 -7 12 -11 4 -11 -7 0
-11 -4 -8 -8 3 -5 -1 -9 -9 -9 -8 0 -12 4 -9 9 3 4 0 8 -5 8 -9 0 -9 28 -1 50
2 3 2 8 1 12 0 4 10 3 24 -2 14 -5 25 -7 25 -4 0 4 7 1 15 -6 8 -7 15 -9 15
-4 0 4 5 3 12 -4 14 -14 104 -16 112 -3 8 12 104 6 141 -9 17 -6 31 -11 33
-11 1 1 15 -4 30 -12 31 -14 80 -16 84 -3 2 5 -8 11 -22 13 -40 7 -35 5 -130
46 l-35 15 28 11 c19 7 35 7 55 0 48 -18 147 -16 169 4 11 9 22 15 25 12 3 -4
11 8 17 25 9 29 12 30 26 17 8 -9 15 -21 15 -27 0 -6 4 -9 9 -6 5 4 5 -10 0
-32 -4 -20 -16 -41 -25 -47 -10 -5 -26 -18 -36 -27 -10 -10 -18 -14 -18 -9 0
6 -9 9 -19 8 -11 0 -17 -6 -15 -12 3 -5 -1 -2 -9 8 -13 16 -15 16 -21 1 -3 -8
-6 -17 -6 -19 0 -11 92 4 116 19 31 20 69 56 59 56 -3 0 5 12 19 27 24 26 86
42 86 22 0 -5 6 -9 13 -9 9 0 14 -12 14 -35 0 -19 -4 -32 -9 -29 -5 4 -7 8 -4
11 8 8 -13 43 -25 43 -28 0 -52 -49 -35 -71 31 -42 101 -19 91 30 -4 19 -2 21
11 10 12 -10 13 -9 8 5 -3 9 -10 16 -15 16 -5 0 -8 3 -7 8 2 4 -4 16 -12 28
-18 24 -71 27 -110 5 -18 -11 -25 -11 -28 -2 -2 7 -22 31 -43 53 -21 23 -39
47 -39 55 0 7 -6 13 -14 13 -8 0 -16 5 -18 11 -2 5 -18 11 -35 13 -21 1 -39
11 -53 29 l-21 26 40 83 c22 46 42 95 45 110 2 15 7 31 10 36 3 4 7 32 10 60
3 29 8 57 11 62 3 6 3 10 -2 10 -4 0 -8 19 -7 43 0 23 -4 56 -8 72 -5 17 -11
41 -14 55 -5 22 -58 130 -76 155 -37 50 -110 121 -149 147 -29 19 -49 39 -49
50 0 10 -5 18 -10 18 -7 0 -7 6 0 20 9 16 8 20 -5 20 -9 0 -13 -4 -10 -10 3
-5 1 -10 -4 -10 -20 0 -11 20 12 30 18 7 18 9 4 9 -10 1 -16 5 -12 10 7 12 -4
19 -39 25 -35 6 -70 -10 -87 -40 -7 -13 -16 -24 -21 -24 -11 0 -11 1 11 46 22
46 37 96 23 76 -5 -8 -13 -14 -18 -14 -5 0 -15 -3 -22 -5 -7 -3 -19 0 -28 7
-12 11 -12 15 -2 21 8 6 9 9 2 9 -6 0 -17 -6 -24 -14 -6 -8 -18 -12 -26 -9 -8
3 -13 8 -10 10 3 3 -2 12 -10 20 -8 8 -12 19 -9 24 4 5 4 9 1 9 -3 0 -7 -3 -7
-7z m224 -130 c-4 -10 -12 -22 -20 -26 -7 -4 -13 -15 -13 -22 0 -20 -29 -19
-37 1 -3 9 0 20 8 25 8 5 10 9 4 10 -8 0 25 15 62 28 1 1 -1 -7 -4 -16z m23
-20 c-10 -10 -19 5 -10 18 6 11 8 11 12 0 2 -7 1 -15 -2 -18z m-181 -57 c152
-16 266 -80 375 -211 27 -32 77 -131 91 -177 26 -93 27 -221 2 -288 -3 -8 -8
-23 -9 -32 -6 -31 -48 -118 -56 -118 -4 0 -8 -7 -8 -15 0 -8 -4 -15 -10 -15
-5 0 -10 -7 -10 -15 0 -8 -7 -16 -15 -16 -46 -4 -79 -21 -112 -57 -36 -40 -40
-51 -18 -53 31 -3 35 -4 35 -11 0 -31 -1 -32 -10 -18 -8 12 -10 12 -15 -2 -5
-12 -14 -15 -38 -10 -18 3 -51 6 -74 6 -46 1 -48 3 -34 25 12 19 -12 66 -39
81 -30 16 -71 6 -106 -25 -28 -24 -31 -32 -27 -65 4 -29 1 -42 -15 -58 -11
-11 -23 -18 -26 -15 -3 4 -6 1 -6 -5 0 -21 -28 -1 -33 24 -3 20 0 24 20 24 13
0 22 4 19 9 -4 5 -1 11 6 13 7 3 9 14 5 29 -7 29 -31 33 -62 13 -18 -13 -17
-14 13 -14 36 0 43 -15 12 -25 -28 -9 -54 18 -41 43 6 11 7 22 4 26 -3 3 7 7
23 7 42 2 58 -2 66 -14 5 -9 10 -9 18 -1 8 8 7 14 -4 23 -31 26 -116 23 -116
-5 0 -8 -5 -14 -11 -14 -7 0 -10 -14 -7 -35 4 -32 2 -35 -22 -36 -14 -1 -31
-1 -38 0 -8 1 -19 -2 -25 -7 -13 -9 -15 -9 -64 3 -18 4 -33 12 -33 17 0 5 -6
8 -12 6 -7 -3 -19 1 -26 9 -15 14 -36 8 -26 -8 3 -5 10 -7 15 -4 5 4 9 2 9 -3
0 -6 14 -15 30 -21 37 -13 38 -27 3 -36 -41 -11 -83 -13 -77 -3 3 4 1 8 -4 8
-19 0 -74 59 -69 75 7 18 28 20 44 4 13 -13 43 -5 43 12 0 9 -3 9 -14 0 -11
-9 -15 -8 -20 5 -3 9 -13 14 -20 11 -22 -9 -26 18 -6 36 12 10 30 14 47 11 30
-5 73 -46 73 -70 0 -8 3 -14 8 -15 45 -5 59 -3 59 8 0 31 -77 93 -122 100 -40
6 -103 111 -131 220 -16 63 -16 243 0 243 5 0 7 3 3 6 -8 8 10 59 46 133 41
83 143 186 226 229 34 17 70 32 80 32 10 0 21 3 25 8 8 8 135 30 151 26 6 -2
33 -5 60 -8z m398 -918 c-2 -5 2 -11 11 -14 8 -3 12 -12 9 -20 -3 -8 -9 -12
-13 -9 -5 3 -25 -4 -44 -15 -20 -11 -36 -17 -36 -13 0 3 -9 -2 -19 -11 -23
-21 -35 -7 -22 27 13 33 59 65 92 63 15 0 25 -4 22 -8z m-352 -29 c11 -5 17
-14 14 -20 -4 -5 1 -9 10 -9 9 0 13 -5 10 -10 -4 -6 -11 -8 -16 -5 -5 3 -6 0
-3 -8 7 -18 -22 -30 -43 -18 -14 7 -13 10 5 15 25 8 28 19 8 35 -16 14 -39 -9
-43 -44 -3 -19 2 -25 27 -30 33 -7 35 -12 16 -37 -19 -26 -39 -22 -59 11 -22
37 -15 89 14 114 25 20 33 21 60 6z m444 -19 c-3 -5 1 -10 9 -10 24 0 29 -18
12 -42 -10 -14 -16 -17 -16 -8 0 10 -3 11 -11 3 -16 -16 -43 -5 -29 12 8 9 5
14 -11 18 -14 4 -19 2 -16 -8 8 -19 -57 -69 -97 -76 -24 -4 -41 0 -56 11 l-23
17 31 14 c17 7 28 17 26 21 -3 5 -2 8 3 7 18 -4 72 14 67 22 -3 5 13 7 35 5
24 -2 47 1 58 10 22 16 26 17 18 4z m53 -42 c-2 -7 -10 -18 -18 -25 -13 -11
-13 -12 3 -13 10 0 17 -8 17 -20 0 -24 -70 -72 -86 -59 -6 5 -29 10 -51 12
-24 1 -40 7 -40 15 0 6 4 13 9 13 18 3 24 5 48 19 14 8 36 16 50 17 14 2 34
15 44 28 22 28 27 31 24 13z m-1039 -84 c11 -10 8 -14 -23 -19 -20 -4 -36 -12
-36 -19 0 -7 -3 -7 -8 -1 -7 11 -27 17 -52 18 -17 0 -32 14 -49 45 -10 19 -9
22 9 22 11 0 20 4 20 10 0 11 117 -36 139 -56z m304 31 c26 -11 21 -35 -7 -35
-14 0 -28 5 -31 10 -3 6 -15 10 -26 10 -19 0 -25 11 -13 23 8 7 51 3 77 -8z
m350 0 c-1 -12 -90 -41 -100 -32 -3 4 1 15 11 26 18 19 91 25 89 6z m-848 -5
c-3 -5 -1 -10 4 -10 6 0 11 -6 11 -14 0 -19 48 -49 71 -43 10 3 22 1 25 -4 3
-6 13 -8 22 -5 10 3 36 7 60 10 23 3 46 8 52 11 5 3 18 0 29 -7 19 -11 19 -12
-6 -25 -13 -7 -42 -18 -64 -24 -21 -7 -37 -15 -35 -18 4 -5 -17 -8 -94 -13
-74 -5 -112 22 -114 81 0 29 5 44 19 55 24 18 28 19 20 6z m412 -30 c8 -12 5
-15 -16 -17 -14 -1 -39 -4 -56 -6 -43 -6 -60 2 -38 18 38 26 96 29 110 5z
m238 9 c-3 -3 7 -12 20 -19 29 -15 41 -40 17 -33 -10 2 -28 0 -42 -5 -16 -6
-32 -5 -49 4 -17 9 -29 10 -37 3 -8 -7 -14 -6 -19 1 -4 6 -3 9 2 8 10 -3 73
34 73 44 0 4 9 6 19 5 11 0 18 -4 16 -8z m298 -4 c15 -4 27 -11 27 -15 0 -12
-60 -21 -78 -11 -18 9 -23 11 -44 11 -8 1 -6 6 5 14 18 14 40 14 90 1z m-443
-41 c0 -11 -32 -30 -65 -37 -11 -2 -29 5 -39 15 -19 18 -19 18 7 18 15 0 27 4
27 8 0 4 16 7 35 7 19 0 35 -5 35 -11z m348 -1 c21 -8 22 -10 8 -22 -9 -8 -16
-10 -16 -5 0 5 -4 4 -8 -2 -9 -15 -82 12 -82 31 0 14 61 13 98 -2z m-241 -65
c0 -9 -11 -21 -24 -27 -26 -12 -31 0 -8 19 11 9 13 16 5 24 -5 5 -10 16 -10
23 0 9 6 7 18 -5 10 -10 19 -26 19 -34z"/>
<path d="M958 1557 c-18 -14 -31 -57 -17 -57 5 0 9 6 9 14 0 30 27 24 40 -10
8 -19 18 -34 24 -34 5 0 6 -3 3 -7 -4 -3 -2 -12 3 -18 6 -7 12 -27 13 -44 1
-17 7 -31 13 -31 13 0 12 51 0 85 -5 11 -4 16 1 10 4 -5 19 -19 32 -30 l24
-20 -11 21 c-6 12 -8 24 -5 28 3 3 1 6 -5 6 -7 0 -12 5 -12 10 0 14 -38 53
-71 74 -20 13 -28 14 -41 3z"/>
<path d="M772 1501 c-6 -16 -8 -32 -5 -35 10 -10 -20 -37 -34 -32 -8 3 -12 2
-9 -3 3 -4 -5 -14 -18 -20 -35 -19 -58 -66 -52 -105 5 -28 0 -41 -19 -65 -21
-24 -22 -29 -8 -27 9 2 19 8 21 14 5 17 19 15 26 -3 3 -8 1 -14 -4 -12 -5 1
-15 -7 -23 -18 -11 -14 -18 -17 -28 -9 -20 15 -51 26 -44 15 3 -5 1 -12 -4
-15 -16 -10 0 -46 21 -46 13 0 17 -4 11 -12 -12 -21 -12 -39 0 -37 22 3 37 -1
35 -8 -2 -5 0 -9 5 -10 16 -6 27 -2 27 8 0 8 -6 7 -17 -2 -16 -12 -17 -12 -6
2 7 9 11 18 8 21 -3 2 5 4 18 4 17 -1 21 4 19 19 -2 11 -9 23 -15 28 -9 5 -8
11 3 20 9 6 14 20 12 30 -3 14 1 17 21 12 36 -9 87 19 80 44 -3 10 -12 22 -21
25 -26 10 -62 32 -59 37 1 2 -4 -2 -10 -10 -7 -8 -9 -17 -5 -20 12 -9 8 -61
-5 -61 -7 0 -17 9 -23 20 -9 16 -8 18 5 14 10 -4 15 0 15 10 0 9 -6 16 -12 16
-8 0 -9 3 -3 8 6 4 12 16 13 27 2 11 9 23 14 26 6 4 8 11 4 17 -3 6 3 13 14
17 11 3 20 11 20 17 0 5 6 8 14 5 19 -7 40 18 32 39 -10 26 11 53 36 47 23 -6
23 -6 4 15 -26 30 -42 28 -54 -7z m8 -61 c0 -5 -5 -10 -11 -10 -5 0 -7 5 -4
10 3 6 8 10 11 10 2 0 4 -4 4 -10z m-120 -270 c-30 -23 -47 -25 -47 -6 0 8 6
12 13 9 6 -2 15 0 19 6 3 6 14 11 23 11 13 0 12 -5 -8 -20z m16 -45 c9 -8 11
-15 6 -15 -5 0 -15 7 -22 15 -7 8 -9 15 -6 15 4 0 14 -7 22 -15z"/>
<path d="M800 1440 c0 -5 7 -7 15 -4 8 4 15 8 15 10 0 2 -7 4 -15 4 -8 0 -15
-4 -15 -10z"/>
<path d="M770 1388 c-39 -25 -51 -38 -44 -50 7 -12 34 3 34 19 0 8 4 12 9 9 5
-3 12 1 15 10 3 8 10 13 14 10 5 -3 9 1 9 9 0 8 -1 15 -1 15 -1 0 -17 -10 -36
-22z"/>
<path d="M1141 1382 c-12 -22 14 -42 42 -33 17 6 16 8 -3 29 -25 27 -27 27
-39 4z"/>
<path d="M790 1358 c0 -9 -8 -22 -17 -27 -12 -7 -14 -10 -4 -11 11 0 11 -3 1
-15 -7 -8 -10 -15 -7 -15 3 0 15 13 26 28 13 19 17 33 10 43 -7 12 -9 11 -9
-3z"/>
<path d="M1177 1301 c19 -19 60 -21 60 -3 0 13 -4 14 -50 17 -25 2 -26 1 -10
-14z"/>
<path d="M1067 1293 c5 -10 8 -40 7 -68 0 -27 5 -59 13 -71 7 -11 11 -23 8
-26 -3 -2 2 -5 10 -5 17 0 11 37 -9 49 -7 5 -6 8 4 8 12 0 12 2 1 9 -10 7 -11
13 -1 31 9 17 9 24 1 30 -7 4 -11 11 -10 16 4 25 -3 44 -16 44 -11 0 -13 -5
-8 -17z"/>
<path d="M1203 1268 c-7 -9 -4 -19 12 -35 20 -19 25 -20 35 -8 10 12 7 17 -14
26 -14 7 -23 16 -20 20 8 14 -2 11 -13 -3z"/>
<path d="M1256 1152 c-3 -6 -2 -12 2 -14 5 -1 28 -36 51 -76 23 -40 46 -70 51
-67 4 3 11 -1 13 -7 4 -9 6 -9 6 -1 1 6 -6 18 -14 27 -8 8 -15 20 -15 26 0 29
-83 129 -94 112z"/>
<path d="M558 1078 c-7 -20 13 -58 31 -58 46 -1 64 -61 24 -79 -19 -9 -23 -8
-17 1 6 9 3 9 -9 -1 -26 -21 -20 -33 12 -28 40 7 47 12 65 48 14 29 14 31 -12
58 -15 15 -35 25 -44 23 -11 -2 -18 4 -20 19 -3 25 -24 37 -30 17z"/>
<path d="M703 1053 c-13 -3 -23 -8 -23 -13 0 -11 64 -19 68 -8 2 5 10 4 18 -2
7 -7 18 -8 25 -4 24 15 -42 35 -88 27z"/>
<path d="M817 1754 c-4 -4 -7 -14 -7 -23 0 -11 3 -12 11 -4 6 6 10 16 7 23 -2
6 -7 8 -11 4z"/>
<path d="M272 678 c-7 -7 -29 -13 -50 -14 -76 -3 -76 -4 -65 -15 5 -5 21 -11
34 -11 13 -1 32 -8 41 -16 16 -13 19 -12 29 12 7 14 15 26 19 26 4 0 7 7 7 15
0 18 0 18 -15 3z"/>
<path d="M1645 670 c-3 -5 -1 -10 4 -10 6 0 11 -5 11 -11 0 -6 6 -17 14 -24
12 -12 16 -12 26 0 7 8 16 12 21 9 5 -3 9 0 9 6 0 6 4 8 10 5 5 -3 20 -8 32
-10 l23 -4 -23 19 c-15 12 -34 18 -54 15 -17 -2 -39 0 -49 6 -11 6 -20 5 -24
-1z"/>
<path d="M1054 364 c0 -30 4 -54 9 -54 5 0 5 -6 -1 -13 -6 -7 -10 -20 -8 -30
3 -20 26 -47 26 -30 0 7 13 9 34 6 25 -3 35 0 40 13 5 12 3 14 -6 7 -7 -5 -19
-8 -25 -7 -7 1 -17 2 -22 3 -5 0 -11 12 -13 26 -5 24 4 30 39 26 6 -1 15 4 19
10 4 8 3 9 -4 5 -7 -4 -12 -2 -12 4 0 8 -6 8 -20 0 -22 -12 -24 -5 -20 55 1
17 -1 27 -6 23 -4 -4 -12 -4 -18 1 -8 7 -11 -7 -12 -45z"/>
<path d="M1823 404 c0 -8 4 -14 8 -14 19 0 49 -46 49 -74 0 -43 -10 -55 -53
-60 -38 -5 -57 6 -77 44 -12 23 -5 62 15 76 19 14 19 21 0 21 -8 0 -12 -4 -9
-9 4 -5 -3 -12 -14 -15 -12 -3 -19 -12 -17 -21 1 -10 -2 -23 -8 -30 -8 -10 -7
-16 4 -23 12 -7 12 -9 -2 -9 -8 0 -25 11 -36 24 l-21 24 29 26 c16 15 27 31
24 37 -8 13 -25 1 -25 -17 0 -8 -4 -12 -10 -9 -5 3 -10 -2 -10 -11 0 -10 -3
-14 -7 -11 -3 4 -12 2 -20 -4 -13 -12 -16 -5 -16 42 0 10 -7 16 -16 14 -11 -1
-16 -12 -15 -33 0 -17 -3 -29 -8 -26 -4 3 -8 11 -8 17 0 7 -14 21 -31 31 -26
15 -33 16 -40 5 -6 -9 -9 -10 -9 -2 0 6 -9 11 -19 10 -11 0 -17 -5 -15 -9 3
-5 9 -6 14 -3 5 3 11 1 15 -5 4 -6 10 -8 14 -5 15 8 42 -32 45 -66 3 -35 -20
-72 -38 -62 -6 3 -5 0 2 -8 11 -12 15 -11 23 4 6 9 14 15 20 12 5 -4 10 -1 10
4 1 6 2 16 3 21 3 25 21 6 18 -19 -2 -22 2 -30 19 -34 19 -5 20 -3 15 26 -10
57 6 61 58 13 48 -43 82 -52 114 -32 7 4 12 2 12 -5 0 -8 4 -8 15 1 8 7 15 9
15 6 0 -4 13 1 30 11 37 21 50 74 29 111 -17 30 -76 57 -76 36z"/>
<path d="M47 397 c11 -18 11 -63 0 -82 -15 -24 -16 -70 -2 -70 6 0 9 12 7 27
-3 29 13 68 28 68 6 0 9 -3 9 -7 -1 -5 0 -10 1 -13 1 -3 3 -13 5 -23 2 -10 9
-25 16 -33 12 -14 14 -14 26 2 7 9 10 21 7 25 -3 5 0 9 6 9 6 0 8 5 4 11 -6
10 11 28 26 29 6 0 10 -24 13 -70 2 -28 14 -40 32 -33 10 3 8 21 -5 74 -21 81
-20 76 -20 89 0 15 -24 7 -31 -10 -9 -21 -6 -35 6 -33 6 2 0 -4 -12 -13 -13
-9 -23 -23 -23 -30 0 -8 -5 -14 -10 -14 -10 0 -27 56 -22 73 1 4 -3 7 -8 7 -5
0 -10 6 -10 14 0 8 -9 13 -24 12 -13 0 -22 -5 -19 -9z"/>
<path d="M315 402 c-11 -11 -4 -42 9 -42 8 0 13 -7 12 -16 -1 -9 6 -32 15 -52
10 -19 16 -38 14 -42 -3 -4 4 -10 15 -13 11 -3 20 -1 20 5 0 5 6 6 13 2 6 -4
5 1 -3 12 -19 22 -40 64 -44 84 -9 46 -19 67 -32 67 -8 0 -16 -3 -19 -5z"/>
<path d="M449 403 c-1 -4 -3 -42 -4 -83 -1 -73 7 -96 30 -82 5 4 22 7 37 8 64
3 109 43 102 92 -3 23 -4 27 -12 40 -11 17 -72 34 -72 20 0 -5 9 -12 20 -15
33 -9 46 -69 21 -102 -18 -23 -77 -35 -89 -17 -4 6 -7 40 -7 75 0 43 -4 66
-12 68 -7 3 -14 1 -14 -4z"/>
<path d="M689 403 c-1 -5 -1 -11 0 -15 0 -5 -4 -8 -10 -8 -5 0 -8 -4 -4 -10 6
-10 -33 -101 -48 -111 -5 -3 -1 -9 8 -13 26 -9 28 -8 21 19 -5 19 -2 25 10 25
12 0 15 6 11 21 -4 17 -3 19 6 10 18 -18 32 -13 15 7 -16 17 -14 42 3 42 5 0
8 -3 7 -7 -2 -5 6 -34 16 -65 15 -42 25 -57 42 -61 l22 -4 -20 46 c-27 59 -35
81 -43 109 -6 20 -33 32 -36 15z"/>
<path d="M830 379 c6 -19 4 -29 -3 -32 -9 -3 -8 -8 2 -18 8 -8 11 -9 8 -3 -4
7 0 14 8 18 8 3 15 0 15 -6 0 -7 7 -32 17 -56 14 -38 18 -41 27 -25 6 10 11
20 12 23 0 3 6 17 12 32 22 52 33 40 35 -39 1 -18 3 -30 5 -28 2 2 15 0 28 -5
22 -9 24 -8 14 10 -6 11 -8 20 -5 20 3 0 1 8 -4 19 -6 10 -12 33 -13 50 -1 17
-5 31 -9 31 -4 0 -6 7 -5 16 0 9 -7 18 -16 19 -17 3 -24 -16 -19 -54 2 -7 -3
-10 -9 -6 -6 3 -10 3 -9 -2 10 -58 -23 -47 -42 14 -11 35 -20 47 -36 48 -18 1
-20 -2 -13 -26z"/>
<path d="M1119 401 c11 -7 11 -9 0 -13 -9 -3 -8 -6 4 -11 12 -5 17 -1 17 13 0
12 -7 20 -17 20 -14 0 -15 -2 -4 -9z"/>
<path d="M1273 395 c-7 -8 -9 -16 -5 -19 10 -6 7 -109 -3 -125 -5 -10 0 -12
33 -11 4 0 6 15 5 32 -3 48 14 50 57 6 32 -33 46 -40 79 -42 23 0 41 4 41 9 0
6 5 3 11 -5 9 -13 10 -13 6 0 -2 8 -12 17 -23 18 -10 2 -27 14 -36 25 -20 25
-24 83 -6 89 9 3 9 6 0 12 -15 9 -42 -48 -37 -76 2 -11 -2 -18 -11 -18 -8 0
-13 4 -10 9 3 5 -1 11 -9 15 -8 3 -15 13 -15 21 0 10 -5 14 -12 10 -7 -4 -2 3
12 14 14 11 32 21 40 22 10 0 11 2 2 6 -6 2 -10 9 -7 14 4 5 -1 6 -9 3 -9 -3
-16 -10 -16 -14 0 -5 -14 -19 -32 -31 l-31 -22 5 26 c6 32 -11 51 -29 32z"/>
<path d="M1790 399 c0 -5 5 -7 10 -4 6 3 10 8 10 11 0 2 -4 4 -10 4 -5 0 -10
-5 -10 -11z"/>
<path d="M293 335 c-6 -7 -9 -16 -6 -19 4 -3 1 -6 -5 -6 -6 0 -9 -6 -6 -14 3
-7 -2 -20 -10 -29 -13 -13 -14 -17 -1 -27 12 -10 16 -7 22 17 4 15 6 34 5 41
-2 6 6 12 16 12 10 0 19 7 19 15 0 8 -4 12 -8 9 -4 -2 -9 0 -11 5 -1 5 -8 3
-15 -4z"/>
<path d="M815 285 c1 -17 -3 -25 -13 -25 -13 0 -12 -3 4 -14 17 -13 20 -12 25
7 6 26 0 57 -11 57 -5 0 -7 -11 -5 -25z"/>
<path d="M1352 186 c-25 -13 -744 -15 -775 -2 -10 5 -23 3 -32 -4 -13 -10 -12
-14 1 -28 9 -9 18 -11 22 -6 4 6 163 10 415 9 270 0 407 3 407 10 -1 25 -15
33 -38 21z"/>
<path d="M740 131 c0 -5 7 -11 15 -15 8 -3 15 -1 15 3 0 5 -7 11 -15 15 -8 3
-15 1 -15 -3z"/>
<path d="M863 125 c-14 -10 -19 -22 -16 -35 3 -11 0 -20 -6 -20 -6 0 -10 5 -8
11 1 6 -11 13 -28 15 -17 2 -24 0 -15 -4 17 -8 20 -26 6 -39 -5 -5 -6 -3 -2 5
4 6 2 12 -3 12 -6 0 -11 -4 -11 -8 0 -4 -16 -9 -36 -10 -35 -3 -36 -2 -33 32
2 19 -1 39 -5 43 -5 4 -6 2 -2 -4 4 -8 2 -13 -7 -13 -14 0 -16 -37 -3 -58 8
-13 66 -21 66 -9 0 6 5 6 13 1 19 -14 62 -11 59 4 -1 8 2 11 8 7 6 -3 8 -10 6
-14 -3 -4 2 -8 10 -8 9 0 13 6 9 15 -4 12 -3 13 10 2 8 -7 15 -9 15 -4 0 5 4
3 9 -5 6 -9 16 -11 27 -6 17 6 17 8 -6 17 l-25 10 24 9 c19 7 21 12 11 24 -9
11 -16 12 -31 2 -11 -7 -17 -17 -15 -24 3 -7 -1 -10 -10 -6 -10 4 -11 9 -4 17
6 9 6 16 -2 24 -9 9 -8 12 5 12 9 0 17 5 17 10 0 13 -2 13 -27 -5z"/>
<path d="M967 122 c-13 -15 -14 -21 -4 -32 10 -10 9 -11 -1 -5 -10 5 -13 0
-10 -21 2 -17 10 -28 21 -30 19 -3 23 12 5 19 -7 2 -10 8 -6 11 3 4 16 -2 28
-14 11 -11 25 -18 31 -14 8 4 8 9 0 17 -7 7 -7 16 0 29 6 12 6 18 -1 18 -5 0
-10 -6 -10 -12 -1 -7 -7 2 -15 20 -16 37 -17 38 -38 14z m23 -2 c0 -5 -5 -10
-11 -10 -5 0 -7 5 -4 10 3 6 8 10 11 10 2 0 4 -4 4 -10z"/>
<path d="M1056 125 c-3 -8 -1 -15 3 -15 5 0 12 6 14 13 4 9 6 9 6 -1 1 -7 5
-11 10 -7 5 3 13 0 17 -6 4 -8 3 -9 -4 -5 -7 4 -12 1 -12 -6 0 -10 -2 -10 -8
-1 -5 8 -13 9 -22 3 -12 -8 -12 -10 -1 -10 10 0 11 -3 2 -14 -25 -30 -2 -44
61 -37 10 1 4 69 -8 80 -19 18 -52 22 -58 6z m51 -70 c0 -10 -4 -12 -12 -5 -7
5 -14 7 -17 4 -3 -3 -8 -1 -11 3 -3 5 5 10 17 11 14 1 23 -4 23 -13z"/>
<path d="M1163 104 c-7 -3 -9 -12 -6 -21 4 -11 2 -14 -5 -9 -8 5 -12 -1 -12
-17 0 -20 5 -24 28 -22 23 1 26 5 24 26 -2 13 -8 26 -13 27 -5 2 -7 8 -3 13 6
10 5 10 -13 3z"/>
<path d="M1214 102 c-8 -6 -9 -14 -5 -60 2 -23 21 -2 21 23 0 13 5 25 12 27 8
3 7 6 -3 10 -9 3 -20 3 -25 0z"/>
</g>
</svg>
